<?xml version="1.0" encoding="utf-8"?>
<!-- Generator: Adobe Illustrator 16.0.0, SVG Export Plug-In . SVG Version: 6.00 Build 0)  -->
<!DOCTYPE svg PUBLIC "-//W3C//DTD SVG 1.1//EN" "http://www.w3.org/Graphics/SVG/1.1/DTD/svg11.dtd">
<svg version="1.1" id="Layer_1" xmlns="http://www.w3.org/2000/svg" xmlns:xlink="http://www.w3.org/1999/xlink" x="0px" y="0px"
	 width="138px" height="21px" viewBox="0 0 138 21" enable-background="new 0 0 138 21" xml:space="preserve">
<g>
	<g>
		<path fill-rule="evenodd" clip-rule="evenodd" fill="#58170D" d="M130.081,6.586c0.124,0.526,0.213,0.89,0.286,1.037h-0.504
			c-0.062-0.108-0.146-0.432-0.246-0.901c-0.112-0.522-0.318-0.718-0.761-0.733h-0.46v1.634h-0.487V3.905
			c0.246-0.05,0.605-0.084,0.936-0.084c0.521,0,0.862,0.101,1.097,0.313c0.185,0.163,0.297,0.42,0.297,0.716
			c0,0.492-0.319,0.824-0.711,0.958v0.017C129.813,5.926,129.986,6.194,130.081,6.586z M129.745,4.901c0-0.487-0.353-0.7-0.867-0.7
			c-0.235,0-0.396,0.021-0.481,0.045v1.372h0.499C129.415,5.619,129.745,5.333,129.745,4.901z"/>
		<path fill-rule="evenodd" clip-rule="evenodd" fill="#58170D" d="M129.027,2.142c-1.96,0-3.549,1.589-3.549,3.549
			c0,1.961,1.589,3.55,3.549,3.55c1.959,0,3.549-1.589,3.549-3.55C132.576,3.731,130.986,2.142,129.027,2.142z M129.027,8.812
			c-1.724,0-3.122-1.397-3.122-3.121c0-1.723,1.398-3.121,3.122-3.121s3.121,1.398,3.121,3.121
			C132.148,7.414,130.751,8.812,129.027,8.812z"/>
	</g>
	<g>
		<text transform="matrix(1 0 0 1 3.4614 19.7813)"><tspan x="0" y="0" fill="#F8B71C" font-family="'MyriadPro-Regular'" font-size="33.5619">m</tspan><tspan x="27.319" y="0" fill="#F8B71C" font-family="'MyriadPro-Regular'" font-size="25.1715">ara</tspan><tspan x="58.305" y="0" fill="#58170D" font-family="'MyriadPro-Regular'" font-size="25.1715">mara</tspan></text>
		<text transform="matrix(1 0 0 1 113.0869 20)" fill="#602119" font-family="'MyriadPro-Regular'" font-size="16.781">.vn</text>
	</g>
</g>
</svg>
